<svg xmlns="http://www.w3.org/2000/svg" viewBox="0 0 216.92 233.44"><defs><style>.cls-1{fill:#ed1c24;}.cls-2{fill:#f7941d;}.cls-3{fill:#f15a29;}.cls-4{fill:#00a79d;}</style></defs><g id="Layer_2" data-name="Layer 2"><g id="Layer_1-2" data-name="Layer 1"><path class="cls-1" d="M102.59,129.37a2.5,2.5,0,0,1-2.5-2.5H91.81a32.85,32.85,0,0,0,65.6,2.5Z"/><path class="cls-2" d="M181.82,124.37h0a27.92,27.92,0,0,0,27.92,27.92h7.18V121.23a20.5,20.5,0,0,0-20.5-20.5H91.81v26.14h8.28a2.5,2.5,0,0,1,2.5-2.5"/><path class="cls-3" d="M181.82,124.37H189a27.92,27.92,0,0,1,27.92,27.92v0a0,0,0,0,1,0,0h-7.18a27.92,27.92,0,0,1-27.92-27.92v0A0,0,0,0,1,181.82,124.37Z"/><path class="cls-4" d="M204.76,40.72c-11.11-12.28-29-28-52.92-35.47A121.31,121.31,0,0,0,117.14,0,113.17,113.17,0,0,0,84,5.62,127.41,127.41,0,0,0,52.82,19.91C18.47,42.24,7,77.11,5.23,82.63a120.15,120.15,0,0,0,4.37,82.1,116.69,116.69,0,0,0,35.6,45.73,112.15,112.15,0,0,0,37.87,19.17,112,112,0,0,0,34.07,3.75c10.85-.24,25.76-.72,42.45-8.34a108,108,0,0,0,23.13-14.74,97.72,97.72,0,0,0,13.78-13A95.27,95.27,0,0,0,212,172.12a72.05,72.05,0,0,0,4.89-15.19h-35.4s-.05,0-.07.09a56,56,0,0,1-4.24,9.58,70.89,70.89,0,0,1-11.85,15.26C157.93,189,141.31,201.1,118.2,202a77.31,77.31,0,0,1-27.11-4.17,81.48,81.48,0,0,1-26.85-15.5A83.23,83.23,0,0,1,43.05,157a83.92,83.92,0,0,1-9.52-40.69,81,81,0,0,1,6.58-33.56A83.33,83.33,0,0,1,54.41,61,86.09,86.09,0,0,1,83.13,40a82.88,82.88,0,0,1,64.36-1,82,82,0,0,1,16.63,9.17,24.61,24.61,0,0,0,27.09.9Z"/></g></g></svg>